<svg width="74" height="74" viewBox="0 0 74 74" fill="none" xmlns="http://www.w3.org/2000/svg">
<circle cx="37.1172" cy="37.2969" r="36.4688" fill="#5822F1"/>
<path d="M45.8471 32.1847L28.3813 22.1128" stroke="white" stroke-width="3.88127" stroke-linecap="round" stroke-linejoin="round"/>
<path d="M54.5799 44.993V29.468C54.5792 28.7873 54.3995 28.1188 54.0589 27.5296C53.7183 26.9403 53.2287 26.451 52.6392 26.1107L39.0548 18.3481C38.4648 18.0075 37.7955 17.8281 37.1142 17.8281C36.4329 17.8281 35.7635 18.0075 35.1735 18.3481L21.5891 26.1107C20.9996 26.451 20.51 26.9403 20.1694 27.5296C19.8288 28.1188 19.6491 28.7873 19.6484 29.468V44.993C19.6491 45.6737 19.8288 46.3422 20.1694 46.9314C20.51 47.5207 20.9996 48.01 21.5891 48.3503L35.1735 56.1129C35.7635 56.4535 36.4329 56.6329 37.1142 56.6329C37.7955 56.6329 38.4648 56.4535 39.0548 56.1129L52.6392 48.3503C53.2287 48.01 53.7183 47.5207 54.0589 46.9314C54.3995 46.3422 54.5792 45.6737 54.5799 44.993Z" stroke="white" stroke-width="3.88127" stroke-linecap="round" stroke-linejoin="round"/>
<path d="M20.1724 27.4497L37.1141 37.2499L54.0559 27.4497" stroke="white" stroke-width="3.88127" stroke-linecap="round" stroke-linejoin="round"/>
<path d="M37.1143 56.7921V37.2305" stroke="white" stroke-width="3.88127" stroke-linecap="round" stroke-linejoin="round"/>
</svg>
