<svg width="73" height="74" viewBox="0 0 73 74" fill="none" xmlns="http://www.w3.org/2000/svg">
<circle cx="36.4839" cy="37.0455" r="36.4688" fill="#E11E1E"/>
<path d="M49.4651 56.5166C53.0494 56.5166 55.9551 53.6109 55.9551 50.0266C55.9551 46.4423 53.0494 43.5366 49.4651 43.5366C45.8808 43.5366 42.9751 46.4423 42.9751 50.0266C42.9751 53.6109 45.8808 56.5166 49.4651 56.5166Z" stroke="white" stroke-width="3" stroke-linecap="round" stroke-linejoin="round"/>
<path d="M23.5051 30.5567C27.0895 30.5567 29.9951 27.651 29.9951 24.0667C29.9951 20.4823 27.0895 17.5767 23.5051 17.5767C19.9208 17.5767 17.0151 20.4823 17.0151 24.0667C17.0151 27.651 19.9208 30.5567 23.5051 30.5567Z" stroke="white" stroke-width="3" stroke-linecap="round" stroke-linejoin="round"/>
<path d="M23.5051 56.5166V30.5566C23.5051 35.7204 25.5564 40.6727 29.2078 44.324C32.8591 47.9753 37.8114 50.0266 42.9751 50.0266" stroke="white" stroke-width="3" stroke-linecap="round" stroke-linejoin="round"/>
</svg>
