<svg width="41" height="38" viewBox="0 0 41 38" fill="none" xmlns="http://www.w3.org/2000/svg">
<path d="M5.52513 9.54088C6.59357 8.85242 8.20418 8.98446 9.1635 9.71482L8.06324 8.24047C7.1778 7.07628 7.49492 5.81674 8.75886 4.9994C10.0228 4.1852 13.6043 6.37421 13.6043 6.37421C12.7109 5.19849 12.878 3.70842 14.1533 2.88374C15.4286 2.06221 17.1882 2.34618 18.0816 3.52399L29.9253 18.9487L28.4159 32.44L15.8185 28.2045L4.83064 13.1854C3.92929 12.0023 4.24073 10.3708 5.52513 9.54088Z" fill="#EF9645"/>
<path d="M3.06334 18.1219C3.06334 18.1219 1.77667 16.3929 3.65326 15.2078C5.52757 14.0226 6.81311 15.7506 6.81311 15.7506L12.7816 23.7752C12.9873 23.4587 13.2124 23.1464 13.4636 22.8384L5.17976 11.7026C5.17976 11.7026 3.89422 9.97469 5.76967 8.78954C7.64399 7.6044 8.92952 9.33234 8.92952 9.33234L16.7212 19.8079C17.011 19.59 17.3077 19.371 17.6134 19.1561L8.58058 7.01026C8.58058 7.01026 7.29504 5.28231 9.17049 4.09717C11.0448 2.91203 12.3303 4.63997 12.3303 4.63997L21.3632 16.7838C21.6951 16.5962 22.0236 16.4338 22.3532 16.2619L13.9103 4.91137C13.9103 4.91137 12.6247 3.18343 14.499 1.99828C16.3734 0.813138 17.6589 2.54108 17.6589 2.54108L26.586 14.5434L27.9432 16.3688C22.3191 19.9253 21.7837 26.6159 24.997 30.9363C25.6392 31.8008 26.5769 31.2088 26.5769 31.2088C22.7203 26.0229 23.8979 20.1956 29.5231 16.6402L27.8648 8.98864C27.8648 8.98864 27.2453 6.97253 29.431 6.40039C31.6179 5.8293 32.2385 7.84541 32.2385 7.84541L34.1538 13.089C34.913 15.1679 35.7212 17.2396 36.7908 19.1991C39.8108 24.7319 38.007 31.608 32.3124 35.2095C26.1007 39.1359 17.6089 37.6762 13.3488 31.9507L3.06334 18.1219Z" fill="#FFDC5D"/>
<path d="M13.6397 33.5319C9.09314 33.5319 4.49886 29.2964 4.49886 25.1049C4.49886 24.5255 4.03852 24.0571 3.40996 24.0571C2.7814 24.0571 2.22559 24.5255 2.22559 25.1049C2.22559 31.3922 6.81987 35.6277 13.6397 35.6277C14.2683 35.6277 14.7763 35.1153 14.7763 34.5358C14.7763 33.9563 14.2683 33.5319 13.6397 33.5319Z" fill="#5DADEC"/>
<path d="M7.95646 35.5836C4.54655 35.5836 2.27327 33.4879 2.27327 30.3443C2.27327 29.7648 1.7652 29.2964 1.13664 29.2964C0.508077 29.2964 0 29.7648 0 30.3443C0 34.5358 3.40991 37.6794 7.95646 37.6794C8.58502 37.6794 9.09309 37.211 9.09309 36.6315C9.09309 36.052 8.58502 35.5836 7.95646 35.5836ZM27.2793 2.05173C26.6519 2.05173 26.1426 2.52117 26.1426 3.0996C26.1426 3.67803 26.6519 4.14747 27.2793 4.14747C31.8258 4.14747 36.3724 7.90829 36.3724 12.5305C36.3724 13.1089 36.8816 13.5783 37.509 13.5783C38.1364 13.5783 38.6456 13.1089 38.6456 12.5305C38.6456 6.75248 34.0991 2.05173 27.2793 2.05173Z" fill="#5DADEC"/>
<path d="M32.9626 0C32.3351 0 31.8259 0.425436 31.8259 1.00386C31.8259 1.58229 32.3351 2.09574 32.9626 2.09574C36.3725 2.09574 38.598 4.42726 38.598 7.2911C38.598 7.86952 39.1538 8.33897 39.7824 8.33897C40.4109 8.33897 40.8713 7.86952 40.8713 7.2911C40.8713 3.27041 37.5091 0 32.9626 0Z" fill="#5DADEC"/>
</svg>
