<svg width="65" height="65" viewBox="0 0 65 65" fill="none" xmlns="http://www.w3.org/2000/svg">
<path d="M21.4109 6.42432C13.1469 6.42432 6.42456 13.1528 6.42456 21.4191V42.8342C6.42456 51.0982 13.1531 57.8205 21.4193 57.8205H42.8344C51.0985 57.8205 57.8208 51.092 57.8208 42.8258V21.4107C57.8208 13.1466 51.0923 6.42432 42.826 6.42432H21.4109ZM47.1132 14.9904C48.2953 14.9904 49.2547 15.9497 49.2547 17.1319C49.2547 18.314 48.2953 19.2734 47.1132 19.2734C45.9311 19.2734 44.9717 18.314 44.9717 17.1319C44.9717 15.9497 45.9311 14.9904 47.1132 14.9904ZM32.1227 19.2734C39.2089 19.2734 44.9717 25.0362 44.9717 32.1224C44.9717 39.2087 39.2089 44.9715 32.1227 44.9715C25.0364 44.9715 19.2736 39.2087 19.2736 32.1224C19.2736 25.0362 25.0364 19.2734 32.1227 19.2734ZM32.1227 23.5564C29.8508 23.5564 27.672 24.4589 26.0656 26.0653C24.4591 27.6718 23.5566 29.8506 23.5566 32.1224C23.5566 34.3943 24.4591 36.5731 26.0656 38.1795C27.672 39.786 29.8508 40.6885 32.1227 40.6885C34.3945 40.6885 36.5733 39.786 38.1798 38.1795C39.7862 36.5731 40.6887 34.3943 40.6887 32.1224C40.6887 29.8506 39.7862 27.6718 38.1798 26.0653C36.5733 24.4589 34.3945 23.5564 32.1227 23.5564Z" fill="#FF7F4F"/>
</svg>
