<svg width="160" height="112" viewBox="0 0 160 112" fill="none" xmlns="http://www.w3.org/2000/svg">
<path d="M67.6003 48.965C67.6614 49.4541 67.692 49.9738 67.692 50.524C67.692 51.0131 67.692 51.5021 67.692 51.9912C67.692 54.6201 67.4474 57.2183 66.9584 59.786C66.4693 62.2926 65.7051 64.3406 64.6658 65.9301C64.2378 66.5415 63.6876 67.4585 63.0151 68.6812C62.3426 69.9039 61.6701 70.7904 60.9977 71.3406C58.7968 73.1747 56.1374 74.5808 53.0195 75.559C49.9627 76.5983 46.8142 77.3319 43.574 77.7598C40.3339 78.1878 37.3688 78.4018 34.6788 78.4018C31.8666 78.4018 29.2378 77.821 26.7924 76.6594C24.4081 75.559 22.0544 74.3668 19.7312 73.083C18.5085 74.2445 17.1329 75.1921 15.6046 75.9258C14.1373 76.6594 12.5478 77.0262 10.836 77.0262C9.1242 77.0262 7.44297 76.9039 5.79231 76.6594C4.20279 76.476 2.88838 75.9563 1.84907 75.1004C0.809771 74.2445 0.290119 72.9301 0.290119 71.1572C0.290119 70.179 0.870907 69.262 2.03248 68.4061C3.19405 67.4891 4.53904 66.8166 6.06742 66.3886C6.55651 66.2664 7.07616 66.1747 7.62638 66.1135C8.1766 65.9913 8.81852 65.9301 9.55214 65.9301C10.0412 65.9301 10.5303 65.9607 11.0194 66.0218C11.5085 66.083 12.0587 66.2052 12.6701 66.3886C13.7705 66.6943 14.8404 67.1223 15.8797 67.6725C16.9801 68.1616 18.05 68.7118 19.0893 69.3231C20.312 68.1004 21.3819 66.6637 22.2989 65.0131C23.2771 63.3624 24.133 61.6201 24.8666 59.786C22.5434 59.1135 20.3426 57.9825 18.264 56.393C16.1853 54.8035 14.4736 52.9388 13.1286 50.7991C11.8447 48.5982 11.2028 46.3362 11.2028 44.013C11.2028 41.0174 11.9059 38.0218 13.312 35.0261C14.7181 32.0305 16.5827 29.2794 18.9059 26.7728C21.2902 24.2663 23.9496 22.2794 26.8841 20.8121C29.8186 19.2837 32.8448 18.5196 35.9627 18.5196C40.7312 18.5196 45.1024 19.3143 49.0762 20.9038C53.1112 22.4322 56.5653 24.8165 59.4387 28.0567C62.3732 31.2357 64.5129 35.2707 65.8579 40.1615C66.1025 40.9563 66.4081 42.1484 66.775 43.7379C67.1418 45.2663 67.4169 47.0087 67.6003 48.965ZM62.0064 51.7161C62.0675 50.8602 62.0981 50.0349 62.0981 49.2401C62.1592 48.3842 62.1898 47.5589 62.1898 46.7641C62.1898 45.2358 62.0981 43.8296 61.9147 42.5458C61.7313 41.2619 61.3645 40.1921 60.8142 39.3362C60.3252 38.5414 59.9584 37.7467 59.7138 36.9519C59.4693 36.1571 59.1636 35.2707 58.7968 34.2925C58.43 33.3143 57.7575 32.2139 56.7793 30.9912C55.4343 29.2183 53.9059 27.8121 52.1941 26.7728C50.5435 25.7335 49.0151 24.6331 47.609 23.4715C46.264 22.31 44.7356 21.5152 43.0238 21.0872C41.312 20.5982 39.2334 20.3536 36.788 20.3536C34.098 20.3536 31.4998 21.0872 28.9932 22.5545C26.5478 23.9606 24.3469 25.8558 22.3906 28.2401C20.4954 30.6244 18.967 33.2226 17.8054 36.0349C16.705 38.786 16.1548 41.5065 16.1548 44.1965C16.1548 46.0305 16.4299 47.9869 16.9801 50.0655C17.5303 52.1441 18.5696 53.8864 20.098 55.2925C20.8316 55.965 21.657 56.5153 22.574 56.9432C23.5522 57.3711 24.5303 57.7074 25.5085 57.9519C25.9976 56.5458 26.4255 55.1703 26.7924 53.8253C27.1592 52.4192 27.4954 51.1048 27.8011 49.8821C28.3513 47.8646 29.2378 45.4803 30.4605 42.7292C31.7443 39.917 33.181 37.3798 34.7705 35.1178C34.526 35.0567 34.2814 35.0261 34.0369 35.0261C33.7924 34.965 33.5478 34.9344 33.3033 34.9344C32.5085 34.9344 31.7138 35.0567 30.919 35.3012C30.1242 35.5458 29.2989 35.8515 28.443 36.2183C27.7094 36.5851 27.098 37.2576 26.6089 38.2357C26.181 39.1528 25.7836 40.0392 25.4168 40.8951C25.1111 41.751 24.7443 42.179 24.3164 42.179C24.133 42.179 23.8884 42.0261 23.5827 41.7205C23.1548 41.2314 22.9408 40.62 22.9408 39.8864C22.9408 39.3362 23.0631 38.786 23.3076 38.2357C23.6133 37.6244 23.9496 37.0436 24.3164 36.4934C24.9889 35.4541 25.7836 34.751 26.7006 34.3842C27.6177 34.0174 28.657 33.6812 29.8186 33.3755C30.7356 33.1921 31.7138 33.1004 32.7531 33.1004C33.8535 33.1004 34.9539 33.1921 36.0544 33.3755C37.0937 32.1528 38.1635 31.144 39.264 30.3493C40.3644 29.5545 41.4037 29.1571 42.3819 29.1571C43.6046 29.1571 44.6439 29.6768 45.4998 30.7161C45.8666 31.0829 46.05 31.5108 46.05 31.9999C46.05 32.4279 45.8666 32.6418 45.4998 32.6418C45.1941 32.6418 44.8579 32.4279 44.4911 31.9999C43.8186 31.3274 43.1155 30.9912 42.3819 30.9912C41.7094 30.9912 41.0064 31.2663 40.2727 31.8165C39.5391 32.3667 38.836 33.1004 38.1636 34.0174C39.5697 34.5065 40.5173 35.0567 41.0063 35.6681C42.3513 37.1964 43.3601 38.786 44.0326 40.4366C44.7662 42.0261 45.133 43.7074 45.133 45.4803C45.133 46.9476 44.8579 48.5676 44.3077 50.3406C42.1679 57.0655 36.9408 60.4279 28.6264 60.4279C28.443 60.4279 28.2596 60.4279 28.0762 60.4279C27.8928 60.3668 27.7094 60.3362 27.526 60.3362C26.7923 62.2314 25.9365 64.0961 24.9583 65.9301C24.0413 67.703 22.9714 69.3537 21.7487 70.8821C23.705 72.0437 25.7225 73.083 27.8011 74C29.9408 74.917 32.2334 75.3755 34.6788 75.3755C39.0194 75.3755 43.0544 74.4891 46.7837 72.7162C50.5129 70.8821 53.9059 68.7118 56.9627 66.2052C58.7356 64.738 59.9889 62.7205 60.7225 60.1528C61.4562 57.524 61.8841 54.7118 62.0064 51.7161ZM41.4649 49.6986C41.8317 48.4759 42.0151 47.3144 42.0151 46.2139C42.0151 44.441 41.6483 42.7598 40.9146 41.1702C40.2422 39.5807 39.4168 38.2969 38.4387 37.3187C37.8884 36.7685 37.3382 36.31 36.788 35.9432C35.443 38.2052 34.2203 40.7729 33.1199 43.6462C32.0806 46.4585 31.3164 48.7816 30.8273 50.6157C30.5216 51.7773 30.1548 53.0305 29.7269 54.3755C29.2989 55.7205 28.8098 57.096 28.2596 58.5022C28.5653 58.5022 28.871 58.5327 29.1766 58.5939C29.4823 58.5939 29.7574 58.5939 30.002 58.5939C33.4255 58.5939 35.9932 57.7685 37.705 56.1179C39.4168 54.4672 40.6701 52.3275 41.4649 49.6986ZM16.3382 71.2489C14.8709 70.5153 13.312 69.8734 11.6613 69.3231C10.3775 68.9563 9.39931 68.7729 8.72682 68.7729C7.99319 68.7729 7.53467 68.9869 7.35127 69.4148C7.229 69.7817 7.16786 70.2402 7.16786 70.7904C7.16786 71.6463 7.229 72.2271 7.35127 72.5327C7.53467 72.8384 7.77922 72.9913 8.08489 72.9913C8.45171 72.9913 8.94079 72.8996 9.55214 72.7162C10.2246 72.4716 10.9888 72.3493 11.8447 72.3493C12.7006 72.3493 13.4954 72.2576 14.229 72.0742C15.0238 71.8297 15.7268 71.5546 16.3382 71.2489ZM79.5138 27.8733C79.3304 29.5851 79.0553 30.9606 78.6885 31.9999C78.3217 33.0392 77.8632 33.9563 77.3129 34.751C76.8239 35.5458 76.2431 36.4017 75.5706 37.3187C74.8981 38.1746 74.1339 39.3056 73.278 40.7117C73.2169 40.9563 72.9418 41.0785 72.4527 41.0785C72.2081 41.0785 71.9636 41.0174 71.719 40.8951C71.4745 40.7117 71.4134 40.4978 71.5356 40.2532C72.2081 39.2139 72.6972 38.4497 73.0029 37.9606C73.3697 37.4716 73.6754 36.9825 73.9199 36.4934C74.2256 35.9432 74.623 35.0567 75.1121 33.834C75.4177 33.0392 75.6929 32.3667 75.9374 31.8165C76.2431 31.2663 76.457 30.5938 76.5793 29.799H74.7453C73.2169 29.799 72.3915 29.5545 72.2693 29.0654C72.2081 28.5152 72.1776 27.4759 72.1776 25.9475C72.1776 24.6637 72.4221 23.8383 72.9112 23.4715C73.4614 23.1047 74.1645 22.7379 75.0204 22.3711C75.326 22.0654 75.7234 21.9126 76.2125 21.9126C76.7627 21.9126 77.2212 22.096 77.5881 22.4628C77.9549 22.8296 78.1383 23.013 78.1383 23.013L79.5138 27.8733ZM111.162 66.8471C111.346 66.6637 111.59 66.572 111.896 66.572C112.324 66.572 112.538 66.786 112.538 67.214C112.538 67.4585 112.385 67.8253 112.079 68.3144C111.835 68.8035 111.284 69.3843 110.429 70.0568C109.573 70.7904 108.686 71.4629 107.769 72.0742C106.913 72.6856 105.721 72.9913 104.193 72.9913C102.542 72.9913 101.228 72.6856 100.249 72.0742C99.3325 71.4629 98.66 70.7904 98.232 70.0568C97.8652 69.262 97.6207 68.6506 97.4984 68.2227C96.7648 68.7729 96.0006 69.5065 95.2058 70.4236C94.4722 71.2795 93.4023 72.0742 91.9962 72.8079C90.5901 73.4803 88.5726 73.8166 85.9438 73.8166C84.4765 73.8166 83.1316 73.4803 81.9088 72.8079C80.7473 72.0742 80.1665 70.5153 80.1665 68.131C80.1665 67.4585 80.1971 66.7554 80.2582 66.0218C80.3805 65.2271 80.5639 64.3712 80.8084 63.4541C81.542 60.5808 82.3979 58.3187 83.3761 56.6681C84.3543 55.0174 85.8215 53.7947 87.7779 53C89.0006 52.5109 90.4984 52.0524 92.2713 51.6244C94.0442 51.1965 95.6032 50.8297 96.9482 50.524C97.3761 50.4017 97.7429 50.0043 98.0486 49.3318C98.4154 48.5982 98.8128 47.9257 99.2408 47.3144C99.4853 47.0087 99.7604 46.7641 100.066 46.5807C100.372 46.3362 100.708 46.2139 101.075 46.2139C101.38 46.2139 101.778 46.3668 102.267 46.6724C102.695 46.9781 102.97 47.5589 103.092 48.4148C103.276 49.2707 103.367 50.0655 103.367 50.7991C103.306 51.1659 103.153 51.6244 102.909 52.1746C102.725 52.6637 102.573 53.2139 102.45 53.8253C102.328 54.6201 102.022 55.7511 101.533 57.2183C101.044 58.6856 100.8 59.9083 100.8 60.8864C100.8 61.7423 100.739 62.8122 100.616 64.0961C100.494 65.3188 100.494 66.1747 100.616 66.6637C101.289 68.131 102.236 69.1092 103.459 69.5982C104.682 70.0262 105.752 70.1485 106.669 69.9651C107.341 69.8428 108.105 69.4454 108.961 68.7729C109.817 68.1004 110.551 67.4585 111.162 66.8471ZM96.3063 56.393C96.184 55.9039 95.8783 55.3842 95.3892 54.834C94.9613 54.2838 94.4111 54.0087 93.7386 54.0087C93.6163 54.0087 93.3718 54.0698 93.0049 54.1921C91.9656 54.5589 90.8652 55.262 89.7036 56.3013C88.542 57.2794 87.5333 58.5633 86.6774 60.1528C85.8215 61.7423 85.3324 63.607 85.2102 65.7467C85.2102 66.3581 85.3936 67.1528 85.7604 68.131C86.1883 69.1092 86.7386 69.9345 87.411 70.607C88.0835 71.2795 88.756 71.4629 89.4285 71.1572C90.8958 70.5458 92.1185 69.6899 93.0966 68.5895C94.1359 67.4279 94.9918 66.0218 95.6643 64.3712C95.97 63.5764 96.184 62.7511 96.3063 61.8952C96.4897 60.9781 96.5814 60.1222 96.5814 59.3275C96.5814 58.5939 96.5508 57.9825 96.4897 57.4934C96.4285 56.9432 96.3674 56.5764 96.3063 56.393ZM131.975 69.048C132.22 68.8035 132.556 68.6812 132.984 68.6812C133.412 68.6812 133.626 68.8646 133.626 69.2314C133.626 69.6594 133.137 70.3319 132.159 71.2489C131.18 72.1659 130.111 72.8996 128.949 73.4498C127.787 74 126.687 74.3974 125.648 74.6419C125.159 74.7031 124.486 74.5197 123.63 74.0917C122.835 73.7249 122.346 73.3275 122.163 72.8996C121.918 72.3493 121.735 71.738 121.613 71.0655C121.49 70.3319 121.429 69.5677 121.429 68.7729C121.429 66.8777 121.643 64.9214 122.071 62.9039C122.499 60.8864 122.897 59.1441 123.263 57.6768C122.53 57.9214 121.704 58.0436 120.787 58.0436C119.932 58.0436 119.167 58.1048 118.495 58.227C118.067 58.8384 117.7 59.5415 117.394 60.3362C117.089 61.0698 116.661 61.8952 116.111 62.8122C115.132 64.4017 114.032 65.9913 112.809 67.5808C111.648 69.1092 110.456 70.3624 109.233 71.3406C108.01 72.3188 106.818 72.8079 105.656 72.8079C104.862 72.8079 104.464 72.5939 104.464 72.1659C104.464 71.738 104.984 71.3406 106.023 70.9738C107.49 70.4236 108.988 69.262 110.517 67.4891C112.045 65.7161 113.421 63.8821 114.643 61.9869C115.255 61.0698 115.652 60.2445 115.835 59.5109C116.019 58.7161 116.111 58.1048 116.111 57.6768C116.111 57.6768 115.835 57.3711 115.285 56.7598C114.796 56.0873 114.552 55.4454 114.552 54.834C114.552 53.489 114.98 52.2663 115.835 51.1659C116.752 50.0655 117.7 49.6681 118.678 49.9738C119.351 50.1572 119.779 50.4628 119.962 50.8908C120.207 51.3187 120.329 51.7773 120.329 52.2663C120.329 52.8166 120.237 53.3973 120.054 54.0087C119.87 54.5589 119.687 55.048 119.504 55.4759C119.687 55.7205 120.084 55.8428 120.696 55.8428C121.613 55.8428 122.621 55.6594 123.722 55.2925C124.517 54.131 125.281 53.2139 126.015 52.5414C126.748 51.869 127.421 51.5938 128.032 51.7161C128.46 51.7773 128.857 51.9301 129.224 52.1746C129.591 52.4192 129.774 52.8777 129.774 53.5502C129.774 54.1004 129.499 54.9257 128.949 56.0262C128.032 57.6768 127.176 59.4803 126.381 61.4367C125.587 63.3319 124.975 65.0742 124.547 66.6637C124.119 68.1921 123.936 69.262 123.997 69.8734C124.119 70.6681 124.333 71.1878 124.639 71.4323C125.006 71.6769 125.403 71.7991 125.831 71.7991C126.137 71.7991 126.442 71.7686 126.748 71.7074C127.115 71.5851 127.451 71.4934 127.757 71.4323C128.674 71.1266 129.438 70.7904 130.049 70.4236C130.661 70.0568 131.303 69.5982 131.975 69.048ZM118.311 53.5502C118.311 53 118.128 52.6026 117.761 52.358C117.7 52.2969 117.608 52.2663 117.486 52.2663C117.18 52.2663 116.905 52.4803 116.661 52.9083C116.416 53.2751 116.294 53.6419 116.294 54.0087C116.294 54.3144 116.325 54.6812 116.386 55.1091C116.508 55.4759 116.722 55.5677 117.028 55.3842C117.333 55.2008 117.608 54.9563 117.853 54.6506C118.159 54.3449 118.311 53.9781 118.311 53.5502ZM159.026 37.7772C159.026 37.7772 159.026 37.9912 159.026 38.4192C159.087 38.8471 158.964 39.3668 158.659 39.9781C158.353 40.5895 157.681 41.2008 156.641 41.8122C156.274 42.0567 155.602 42.2401 154.624 42.3624C153.646 42.4847 152.545 42.5764 151.322 42.6375C150.65 44.4104 149.916 46.2139 149.122 48.048C148.327 49.8209 147.501 51.5021 146.646 53.0917C145.362 55.5371 144.261 57.3406 143.344 58.5022C142.488 59.6637 141.816 60.5502 141.327 61.1615C140.838 61.7118 140.501 62.3843 140.318 63.179C140.257 63.5458 140.196 63.8821 140.135 64.1878C140.135 64.4934 140.135 64.7991 140.135 65.1048C140.135 67.3668 140.777 69.0175 142.06 70.0568C143.405 71.0961 144.689 71.6157 145.912 71.6157C147.318 71.6157 148.724 71.1266 150.13 70.1485C151.536 69.1092 152.698 68.1616 153.615 67.3057C154.349 66.6943 154.899 66.3886 155.266 66.3886C155.51 66.3886 155.633 66.5109 155.633 66.7554C155.633 67.1834 155.296 67.8559 154.624 68.7729C154.257 69.262 153.646 69.9345 152.79 70.7904C151.934 71.6463 150.864 72.441 149.58 73.1747C148.296 73.8472 146.86 74.1834 145.27 74.1834C142.091 74.1834 139.951 73.4498 138.851 71.9825C137.812 70.5153 137.292 68.0699 137.292 64.6463C137.292 61.9563 137.567 58.655 138.117 54.7423C138.667 50.7685 139.523 46.5807 140.685 42.179C140.379 42.179 140.074 42.179 139.768 42.179C139.462 42.1178 139.187 42.0873 138.943 42.0873C138.148 42.0873 137.536 42.2096 137.108 42.4541C136.742 42.6375 136.436 42.7292 136.191 42.7292C135.58 42.7292 135.274 42.2707 135.274 41.3537C135.274 40.3144 135.55 39.5196 136.1 38.9694C136.528 38.5414 137.261 38.3274 138.301 38.3274C139.095 38.3274 140.165 38.4803 141.51 38.786C141.632 38.4192 141.755 38.0829 141.877 37.7772C141.999 37.4716 142.091 37.1659 142.152 36.8602C142.274 36.2488 142.397 35.7598 142.519 35.3929C142.641 35.0261 142.794 34.5676 142.977 34.0174C144.017 30.8995 145.148 27.9038 146.37 25.0305C147.593 22.1571 149.366 19.5894 151.689 17.3274C152.117 16.6549 152.698 16.3187 153.432 16.3187C153.982 16.3187 154.471 16.5632 154.899 17.0523C155.327 17.4802 155.51 17.9999 155.449 18.6113C155.449 18.6113 155.419 19.3754 155.357 20.9038C155.296 22.4322 155.174 24.2969 154.991 26.4977C154.807 28.6375 154.532 30.6855 154.165 32.6418C153.982 33.8034 153.707 35.0567 153.34 36.4017C153.034 37.6855 152.637 38.9999 152.148 40.3449C152.515 40.4061 152.851 40.4672 153.157 40.5283C153.523 40.5283 153.86 40.5283 154.165 40.5283C155.082 40.5283 155.785 40.4061 156.274 40.1615C156.825 39.8558 157.13 39.5502 157.191 39.2445C157.314 38.9388 157.375 38.786 157.375 38.786C157.375 37.5633 157.681 36.9519 158.292 36.9519C158.598 36.9519 158.842 37.227 159.026 37.7772ZM152.515 22.4628C152.148 22.4017 151.567 23.1047 150.772 24.572C149.977 26.0392 149.122 27.965 148.205 30.3493C147.288 32.7336 146.401 35.2707 145.545 37.9606C145.484 38.2052 145.423 38.4497 145.362 38.6943C145.301 38.8777 145.239 39.0916 145.178 39.3362C145.606 39.4585 146.034 39.5502 146.462 39.6113C146.89 39.6724 147.349 39.7641 147.838 39.8864C148.082 39.9475 148.357 39.9781 148.663 39.9781C148.969 39.9781 149.244 40.0392 149.488 40.1615C149.733 39.489 149.947 38.9082 150.13 38.4192C150.314 37.8689 150.497 37.3798 150.681 36.9519C151.353 34.6899 151.903 32.3667 152.331 29.9825C152.759 27.5982 152.973 25.7335 152.973 24.3886C152.973 23.2881 152.82 22.6462 152.515 22.4628ZM148.48 42.6375H146.829C146.401 42.6375 145.973 42.6375 145.545 42.6375C145.178 42.6375 144.812 42.6069 144.445 42.5458C143.894 44.8689 143.344 47.3755 142.794 50.0655C142.305 52.6943 141.908 55.048 141.602 57.1266C142.336 56.2707 143.1 55.048 143.894 53.4585C144.689 51.869 145.484 50.1266 146.279 48.2314C147.074 46.2751 147.807 44.4104 148.48 42.6375Z" fill="#373636"/>
<path d="M10.6178 111.851C9.52076 111.851 8.57764 111.71 7.7885 111.428C6.99936 111.152 6.34175 110.786 5.81566 110.331C5.29598 109.882 4.88217 109.4 4.57421 108.887L6.38345 107.617C6.58876 107.886 6.84859 108.194 7.16297 108.541C7.47734 108.894 7.90719 109.198 8.45253 109.455C9.00429 109.718 9.72606 109.849 10.6178 109.849C11.8112 109.849 12.796 109.561 13.5723 108.983C14.3486 108.406 14.7368 107.501 14.7368 106.269V103.267H14.5443C14.3775 103.536 14.1401 103.87 13.8321 104.268C13.5306 104.659 13.0943 105.009 12.5233 105.317C11.9587 105.618 11.1953 105.769 10.2329 105.769C9.03957 105.769 7.96814 105.487 7.01861 104.922C6.0755 104.358 5.32806 103.536 4.77631 102.459C4.23097 101.381 3.9583 100.072 3.9583 98.5321C3.9583 97.0179 4.22455 95.6995 4.75706 94.5768C5.28957 93.4476 6.03059 92.575 6.98012 91.9591C7.92965 91.3368 9.02674 91.0256 10.2714 91.0256C11.2338 91.0256 11.9972 91.186 12.5618 91.5068C13.1328 91.8212 13.5691 92.1805 13.8706 92.5847C14.1786 92.9824 14.416 93.3096 14.5828 93.5663H14.8138V91.2181H17.0079V106.423C17.0079 107.694 16.7192 108.727 16.1418 109.522C15.5708 110.324 14.8009 110.911 13.8321 111.283C12.8698 111.662 11.7983 111.851 10.6178 111.851ZM10.5409 103.729C11.4519 103.729 12.2218 103.52 12.8505 103.103C13.4793 102.686 13.9572 102.086 14.2845 101.304C14.6117 100.521 14.7753 99.5842 14.7753 98.4936C14.7753 97.4286 14.6149 96.4886 14.2941 95.6738C13.9733 94.859 13.4985 94.2207 12.8698 93.7587C12.241 93.2968 11.4647 93.0658 10.5409 93.0658C9.5785 93.0658 8.77653 93.3096 8.13495 93.7972C7.49979 94.2848 7.02182 94.9392 6.70103 95.7605C6.38666 96.5817 6.22947 97.4927 6.22947 98.4936C6.22947 99.5201 6.38987 100.428 6.71066 101.217C7.03786 102 7.51904 102.616 8.1542 103.065C8.79578 103.507 9.59133 103.729 10.5409 103.729ZM27.1274 106V91.2181H29.3216V93.4508H29.4755C29.745 92.7194 30.2326 92.1259 30.9383 91.6704C31.6441 91.2149 32.4396 90.9871 33.325 90.9871C33.4918 90.9871 33.7003 90.9903 33.9505 90.9968C34.2007 91.0032 34.39 91.0128 34.5183 91.0256V93.3353C34.4413 93.3161 34.2649 93.2872 33.989 93.2487C33.7196 93.2038 33.4341 93.1813 33.1325 93.1813C32.414 93.1813 31.7724 93.3321 31.2078 93.6336C30.6496 93.9288 30.2069 94.3394 29.8797 94.8655C29.559 95.3851 29.3986 95.9786 29.3986 96.6458V106H27.1274ZM47.5224 106.346C46.5857 106.346 45.7357 106.17 44.9722 105.817C44.2087 105.458 43.6024 104.941 43.1533 104.268C42.7042 103.588 42.4797 102.766 42.4797 101.804C42.4797 100.957 42.6465 100.271 42.9801 99.7446C43.3137 99.2121 43.7596 98.7951 44.3178 98.4936C44.876 98.192 45.4919 97.9675 46.1655 97.8199C46.8456 97.6659 47.5289 97.544 48.2154 97.4542C49.1136 97.3387 49.8417 97.2521 50.3999 97.1944C50.9645 97.1302 51.3751 97.0244 51.6317 96.8768C51.8948 96.7292 52.0263 96.4726 52.0263 96.1069V96.0299C52.0263 95.0804 51.7665 94.3426 51.2468 93.8165C50.7335 93.2904 49.954 93.0273 48.9083 93.0273C47.824 93.0273 46.9739 93.2647 46.358 93.7395C45.7421 94.2143 45.309 94.7211 45.0588 95.26L42.9031 94.4901C43.2881 93.5919 43.8013 92.8926 44.4429 92.3922C45.0909 91.8853 45.7966 91.5325 46.5601 91.3336C47.33 91.1283 48.087 91.0256 48.8313 91.0256C49.306 91.0256 49.8514 91.0834 50.4673 91.1989C51.0896 91.3079 51.6895 91.5357 52.2669 91.8821C52.8507 92.2286 53.3351 92.7515 53.7201 93.4508C54.105 94.1501 54.2975 95.0868 54.2975 96.2609V106H52.0263V103.998H51.9108C51.7568 104.319 51.5002 104.662 51.1409 105.028C50.7817 105.394 50.3037 105.705 49.707 105.962C49.1103 106.218 48.3822 106.346 47.5224 106.346ZM47.8689 104.306C48.7671 104.306 49.5242 104.13 50.1401 103.777C50.7624 103.424 51.2308 102.969 51.5451 102.41C51.8659 101.852 52.0263 101.265 52.0263 100.649V98.5706C51.9301 98.686 51.7184 98.7919 51.3911 98.8881C51.0704 98.978 50.6982 99.0582 50.2748 99.1287C49.8578 99.1929 49.4504 99.2506 49.0526 99.302C48.6612 99.3469 48.3437 99.3854 48.0999 99.4174C47.5096 99.4944 46.9579 99.6195 46.4446 99.7928C45.9378 99.9596 45.5272 100.213 45.2128 100.553C44.9048 100.887 44.7508 101.342 44.7508 101.92C44.7508 102.709 45.0428 103.305 45.6266 103.71C46.2168 104.107 46.9643 104.306 47.8689 104.306ZM64.4049 111.543V91.2181H66.5991V93.5663H66.8685C67.0354 93.3096 67.2663 92.9824 67.5615 92.5847C67.863 92.1805 68.2928 91.8212 68.851 91.5068C69.4156 91.186 70.1791 91.0256 71.1414 91.0256C72.3861 91.0256 73.4832 91.3368 74.4327 91.9591C75.3823 92.5815 76.1233 93.4636 76.6558 94.6056C77.1883 95.7476 77.4545 97.0949 77.4545 98.6475C77.4545 100.213 77.1883 101.57 76.6558 102.718C76.1233 103.86 75.3855 104.746 74.4423 105.374C73.4992 105.997 72.4118 106.308 71.1799 106.308C70.2304 106.308 69.4701 106.151 68.8991 105.836C68.3281 105.516 67.8887 105.153 67.5807 104.749C67.2727 104.338 67.0354 103.998 66.8685 103.729H66.6761V111.543H64.4049ZM66.6376 98.6091C66.6376 99.7254 66.8012 100.71 67.1284 101.564C67.4556 102.41 67.9336 103.074 68.5623 103.556C69.1911 104.03 69.9609 104.268 70.872 104.268C71.8215 104.268 72.6139 104.018 73.249 103.517C73.8906 103.01 74.3718 102.33 74.6926 101.477C75.0198 100.617 75.1834 99.6612 75.1834 98.6091C75.1834 97.5697 75.023 96.633 74.7022 95.799C74.3878 94.9585 73.9098 94.2945 73.2683 93.8069C72.6331 93.3128 71.8343 93.0658 70.872 93.0658C69.9481 93.0658 69.1718 93.3 68.5431 93.7684C67.9143 94.2303 67.4396 94.8783 67.1188 95.7123C66.798 96.54 66.6376 97.5055 66.6376 98.6091ZM89.1523 97.1078V106H86.8811V86.2908H89.1523V93.5278H89.3447C89.6912 92.7643 90.2109 92.158 90.9038 91.7089C91.6031 91.2534 92.5334 91.0256 93.6946 91.0256C94.7019 91.0256 95.584 91.2277 96.3411 91.6319C97.0982 92.0297 97.6852 92.6424 98.1022 93.47C98.5257 94.2912 98.7374 95.337 98.7374 96.6073V106H96.4662V96.7613C96.4662 95.5872 96.1615 94.6794 95.552 94.0378C94.9489 93.3898 94.1116 93.0658 93.0402 93.0658C92.296 93.0658 91.6287 93.223 91.0385 93.5374C90.4547 93.8518 89.9927 94.3105 89.6527 94.9136C89.3191 95.5167 89.1523 96.2481 89.1523 97.1078ZM108.854 106V91.2181H111.126V106H108.854ZM110.009 88.7545C109.567 88.7545 109.185 88.6037 108.864 88.3021C108.55 88.0006 108.392 87.6381 108.392 87.2147C108.392 86.7912 108.55 86.4287 108.864 86.1272C109.185 85.8257 109.567 85.6749 110.009 85.6749C110.452 85.6749 110.83 85.8257 111.145 86.1272C111.466 86.4287 111.626 86.7912 111.626 87.2147C111.626 87.6381 111.466 88.0006 111.145 88.3021C110.83 88.6037 110.452 88.7545 110.009 88.7545ZM127.253 106.308C125.867 106.308 124.673 105.981 123.673 105.326C122.672 104.672 121.902 103.771 121.363 102.622C120.824 101.474 120.555 100.162 120.555 98.686C120.555 97.1848 120.83 95.8599 121.382 94.7115C121.94 93.5566 122.717 92.6552 123.711 92.0072C124.712 91.3528 125.88 91.0256 127.214 91.0256C128.253 91.0256 129.19 91.2181 130.024 91.603C130.858 91.988 131.542 92.5269 132.074 93.2198C132.607 93.9127 132.937 94.7211 133.065 95.645H130.794C130.621 94.9713 130.236 94.3747 129.639 93.855C129.049 93.3289 128.253 93.0658 127.253 93.0658C126.367 93.0658 125.591 93.2968 124.924 93.7587C124.263 94.2143 123.746 94.859 123.374 95.6931C123.009 96.5207 122.826 97.4927 122.826 98.6091C122.826 99.7511 123.005 100.745 123.365 101.592C123.73 102.439 124.244 103.097 124.904 103.565C125.572 104.034 126.354 104.268 127.253 104.268C127.843 104.268 128.379 104.165 128.86 103.96C129.341 103.754 129.748 103.459 130.082 103.074C130.416 102.689 130.653 102.228 130.794 101.689H133.065C132.937 102.561 132.619 103.347 132.113 104.046C131.612 104.739 130.948 105.291 130.12 105.702C129.299 106.106 128.343 106.308 127.253 106.308ZM152.818 94.5286L150.778 95.106C150.649 94.766 150.46 94.4356 150.21 94.1148C149.966 93.7876 149.633 93.5182 149.209 93.3064C148.786 93.0947 148.244 92.9889 147.583 92.9889C146.678 92.9889 145.924 93.1974 145.321 93.6144C144.724 94.025 144.426 94.5479 144.426 95.183C144.426 95.7476 144.631 96.1935 145.042 96.5207C145.453 96.8479 146.094 97.1206 146.967 97.3387L149.161 97.8777C150.483 98.1984 151.467 98.6892 152.115 99.3501C152.763 100.004 153.087 100.848 153.087 101.881C153.087 102.728 152.844 103.485 152.356 104.152C151.875 104.82 151.201 105.346 150.335 105.731C149.469 106.115 148.462 106.308 147.313 106.308C145.806 106.308 144.558 105.981 143.57 105.326C142.582 104.672 141.956 103.716 141.693 102.459L143.849 101.92C144.054 102.715 144.442 103.312 145.013 103.71C145.591 104.107 146.344 104.306 147.275 104.306C148.333 104.306 149.174 104.082 149.796 103.633C150.425 103.177 150.739 102.632 150.739 101.997C150.739 101.483 150.56 101.053 150.2 100.707C149.841 100.354 149.289 100.091 148.545 99.9179L146.081 99.3404C144.728 99.0197 143.733 98.5224 143.098 97.8488C142.469 97.1687 142.155 96.3186 142.155 95.2985C142.155 94.4645 142.389 93.7267 142.858 93.0851C143.332 92.4435 143.977 91.9399 144.792 91.5742C145.613 91.2085 146.543 91.0256 147.583 91.0256C149.046 91.0256 150.194 91.3464 151.028 91.988C151.868 92.6296 152.465 93.4764 152.818 94.5286Z" fill="#373636"/>
</svg>
