<svg width="65" height="65" viewBox="0 0 65 65" fill="none" xmlns="http://www.w3.org/2000/svg">
<path d="M32.5001 6.42432C18.3083 6.42432 6.802 17.9306 6.802 32.1224C6.802 36.9434 8.15617 41.4381 10.466 45.2935L7.03205 57.8205L19.8267 54.4619C23.5686 56.5893 27.8884 57.8205 32.5001 57.8205C46.6919 57.8205 58.1982 46.3142 58.1982 32.1224C58.1982 17.9306 46.6919 6.42432 32.5001 6.42432ZM23.704 20.135C24.1216 20.135 24.5507 20.1325 24.9212 20.1517C25.3795 20.1624 25.8783 20.196 26.3558 21.2518C26.9233 22.5067 28.159 25.6549 28.3175 25.974C28.476 26.293 28.5882 26.6689 28.3677 27.0865C28.1578 27.5148 28.0487 27.7741 27.7403 28.1531C27.4212 28.5214 27.0716 28.9789 26.7825 29.2573C26.4634 29.5764 26.1339 29.9263 26.5022 30.5623C26.8706 31.1983 28.1498 33.2834 30.0407 34.9666C32.4713 37.1381 34.5221 37.8054 35.1603 38.1245C35.7984 38.4436 36.168 38.3939 36.5364 37.9656C36.9154 37.548 38.1283 36.1151 38.5566 35.4769C38.9742 34.8387 39.4005 34.9492 39.9787 35.159C40.5654 35.3689 43.6946 36.9103 44.3328 37.2294C44.971 37.5485 45.3893 37.7064 45.5499 37.9656C45.7148 38.2333 45.715 39.5076 45.186 40.9938C44.6571 42.4779 42.0596 43.913 40.8947 44.0137C39.719 44.1229 38.6217 44.5421 33.253 42.4284C26.7771 39.8779 22.693 33.245 22.374 32.8167C22.0549 32.3992 19.7807 29.3682 19.7807 26.2416C19.7807 23.1043 21.4256 21.5679 22.0017 20.9297C22.5885 20.2915 23.2757 20.135 23.704 20.135Z" fill="#FF7F4F"/>
</svg>
